<mxfile host="app.diagrams.net" modified="2021-10-21T23:13:27.131Z" agent="5.0 (X11; Linux x86_64) AppleWebKit/537.36 (KHTML, like Gecko) Chrome/93.0.4577.63 Safari/537.36" etag="7zQKXR6kSuNSWJgnb_4g" version="15.5.8" type="github">
  <diagram id="DTVNUjMC_WzL-ufFtIwv" name="Page-1">
    <mxGraphModel dx="850" dy="482" grid="1" gridSize="10" guides="1" tooltips="1" connect="1" arrows="1" fold="1" page="1" pageScale="1" pageWidth="827" pageHeight="1169" math="0" shadow="0">
      <root>
        <mxCell id="0" />
        <mxCell id="1" parent="0" />
        <mxCell id="6tIobK_SIUxxC4yWX5vF-2" value="" style="endArrow=none;html=1;rounded=0;" parent="1" edge="1">
          <mxGeometry width="50" height="50" relative="1" as="geometry">
            <mxPoint x="360" y="440" as="sourcePoint" />
            <mxPoint x="360" y="280" as="targetPoint" />
          </mxGeometry>
        </mxCell>
        <mxCell id="6tIobK_SIUxxC4yWX5vF-3" value="" style="endArrow=none;html=1;rounded=0;" parent="1" edge="1">
          <mxGeometry width="50" height="50" relative="1" as="geometry">
            <mxPoint x="240" y="440" as="sourcePoint" />
            <mxPoint x="360" y="280" as="targetPoint" />
          </mxGeometry>
        </mxCell>
        <mxCell id="6tIobK_SIUxxC4yWX5vF-4" value="" style="endArrow=none;html=1;rounded=0;" parent="1" edge="1">
          <mxGeometry width="50" height="50" relative="1" as="geometry">
            <mxPoint x="560" y="440" as="sourcePoint" />
            <mxPoint x="438" y="440" as="targetPoint" />
          </mxGeometry>
        </mxCell>
        <mxCell id="6tIobK_SIUxxC4yWX5vF-5" value="" style="endArrow=none;html=1;rounded=0;" parent="1" edge="1">
          <mxGeometry width="50" height="50" relative="1" as="geometry">
            <mxPoint x="558" y="441" as="sourcePoint" />
            <mxPoint x="558" y="281" as="targetPoint" />
          </mxGeometry>
        </mxCell>
        <mxCell id="6tIobK_SIUxxC4yWX5vF-7" value="" style="endArrow=none;html=1;rounded=0;" parent="1" edge="1">
          <mxGeometry width="50" height="50" relative="1" as="geometry">
            <mxPoint x="182" y="441" as="sourcePoint" />
            <mxPoint x="60" y="441" as="targetPoint" />
          </mxGeometry>
        </mxCell>
        <mxCell id="6tIobK_SIUxxC4yWX5vF-9" value="" style="endArrow=none;html=1;rounded=0;" parent="1" edge="1">
          <mxGeometry width="50" height="50" relative="1" as="geometry">
            <mxPoint x="60" y="442" as="sourcePoint" />
            <mxPoint x="180" y="282" as="targetPoint" />
          </mxGeometry>
        </mxCell>
        <mxCell id="6tIobK_SIUxxC4yWX5vF-10" value="" style="endArrow=none;html=1;rounded=0;" parent="1" edge="1">
          <mxGeometry width="50" height="50" relative="1" as="geometry">
            <mxPoint x="362" y="721" as="sourcePoint" />
            <mxPoint x="240" y="721" as="targetPoint" />
          </mxGeometry>
        </mxCell>
        <mxCell id="6tIobK_SIUxxC4yWX5vF-11" value="" style="endArrow=none;html=1;rounded=0;" parent="1" edge="1">
          <mxGeometry width="50" height="50" relative="1" as="geometry">
            <mxPoint x="360" y="722" as="sourcePoint" />
            <mxPoint x="360" y="562" as="targetPoint" />
          </mxGeometry>
        </mxCell>
        <mxCell id="6tIobK_SIUxxC4yWX5vF-12" value="" style="endArrow=none;html=1;rounded=0;" parent="1" edge="1">
          <mxGeometry width="50" height="50" relative="1" as="geometry">
            <mxPoint x="240" y="722" as="sourcePoint" />
            <mxPoint x="360" y="562" as="targetPoint" />
          </mxGeometry>
        </mxCell>
        <mxCell id="6tIobK_SIUxxC4yWX5vF-13" value="Avg latency = (5+3)/2 = 4" style="text;html=1;resizable=0;autosize=1;align=center;verticalAlign=middle;points=[];fillColor=none;strokeColor=none;rounded=0;" parent="1" vertex="1">
          <mxGeometry x="5" y="450" width="150" height="20" as="geometry" />
        </mxCell>
        <mxCell id="6tIobK_SIUxxC4yWX5vF-14" value="Avg latency = (5+4)/2 = 4.5" style="text;html=1;resizable=0;autosize=1;align=center;verticalAlign=middle;points=[];fillColor=none;strokeColor=none;rounded=0;" parent="1" vertex="1">
          <mxGeometry x="243" y="260" width="160" height="20" as="geometry" />
        </mxCell>
        <mxCell id="6tIobK_SIUxxC4yWX5vF-15" value="Avg latency = (4+3)/2 = 3.5" style="text;html=1;resizable=0;autosize=1;align=center;verticalAlign=middle;points=[];fillColor=none;strokeColor=none;rounded=0;" parent="1" vertex="1">
          <mxGeometry x="493" y="450" width="160" height="20" as="geometry" />
        </mxCell>
        <mxCell id="6tIobK_SIUxxC4yWX5vF-16" value="&lt;b&gt;Consolidated latency as global view:&lt;/b&gt;" style="text;html=1;resizable=0;autosize=1;align=center;verticalAlign=middle;points=[];fillColor=none;strokeColor=none;rounded=0;" parent="1" vertex="1">
          <mxGeometry x="120" y="520" width="220" height="20" as="geometry" />
        </mxCell>
        <mxCell id="6tIobK_SIUxxC4yWX5vF-17" value="4.5" style="text;html=1;resizable=0;autosize=1;align=center;verticalAlign=middle;points=[];fillColor=none;strokeColor=none;rounded=0;" parent="1" vertex="1">
          <mxGeometry x="345" y="540" width="30" height="20" as="geometry" />
        </mxCell>
        <mxCell id="6tIobK_SIUxxC4yWX5vF-18" value="3.5" style="text;html=1;resizable=0;autosize=1;align=center;verticalAlign=middle;points=[];fillColor=none;strokeColor=none;rounded=0;" parent="1" vertex="1">
          <mxGeometry x="366" y="714" width="30" height="20" as="geometry" />
        </mxCell>
        <mxCell id="6tIobK_SIUxxC4yWX5vF-19" value="4.0" style="text;html=1;resizable=0;autosize=1;align=center;verticalAlign=middle;points=[];fillColor=none;strokeColor=none;rounded=0;" parent="1" vertex="1">
          <mxGeometry x="206" y="714" width="30" height="20" as="geometry" />
        </mxCell>
        <mxCell id="6tIobK_SIUxxC4yWX5vF-20" value="&lt;b&gt;Avg latency from local view:&lt;/b&gt;" style="text;html=1;resizable=0;autosize=1;align=center;verticalAlign=middle;points=[];fillColor=none;strokeColor=none;rounded=0;" parent="1" vertex="1">
          <mxGeometry x="140" y="210" width="180" height="20" as="geometry" />
        </mxCell>
      </root>
    </mxGraphModel>
  </diagram>
</mxfile>
